<?xml version="1.0" standalone="no"?>
<!DOCTYPE svg PUBLIC "-//W3C//DTD SVG 20010904//EN"
 "http://www.w3.org/TR/2001/REC-SVG-20010904/DTD/svg10.dtd">
<svg version="1.0" xmlns="http://www.w3.org/2000/svg"
 width="114.000000pt" height="114.000000pt" viewBox="0 0 114.000000 114.000000"
 preserveAspectRatio="xMidYMid meet">
<metadata>
Created by potrace 1.11, written by Peter Selinger 2001-2013
</metadata>
<g transform="translate(0.000000,114.000000) scale(0.100000,-0.100000)"
fill="#000000" stroke="none">
<path d="M556 991 c-14 -108 -104 -184 -234 -197 -50 -6 -62 -10 -60 -23 3
-13 15 -16 58 -14 81 4 146 30 196 77 l44 43 0 -51 c0 -58 -33 -138 -71 -173
-35 -32 -96 -55 -164 -62 -48 -5 -60 -10 -63 -25 -4 -17 1 -18 65 -14 84 6
154 36 201 85 l35 38 -5 -73 c-10 -134 -89 -212 -233 -230 -43 -5 -60 -11 -60
-22 0 -12 13 -15 63 -13 80 4 151 34 197 84 l35 39 0 -176 c0 -162 1 -175 18
-172 15 3 18 21 22 171 l5 167 30 -32 c44 -47 123 -79 198 -81 49 -2 62 1 62
13 0 11 -17 17 -63 23 -151 18 -232 104 -232 244 l0 55 25 -31 c40 -46 124
-83 205 -89 60 -4 70 -2 70 11 0 17 -14 22 -93 31 -123 14 -207 106 -207 228
l0 52 38 -36 c20 -20 51 -43 68 -51 38 -19 158 -41 180 -33 32 12 5 30 -64 42
-130 22 -207 90 -219 195 -4 38 -10 49 -23 49 -13 0 -19 -12 -24 -49z"/>
</g>
</svg>
